# xmcd CD database file
#
# Track frame offsets:
#	150
#	19062
#	43270
#	65446
#	85655
#	102653
#	119551
#	155157
#	185171
#	202808
#	228882
#	264871
#
# Disc length: 3702 seconds
#
# Revision: 1
# Processed by: cddbd v1.5.1PL2 Copyright (c) Steve Scherf et al.
# Submitted via: CDex 1.51
#
DISCID=a30e740c
DTITLE=Ian Shaw and Cedar Walton - In A New York Minute
DYEAR=1999
DGENRE=Jazz
TTITLE0=In A New York Minute
TTITLE1=Standing In The Dark
TTITLE2=Wouldn't It Be Loverly
TTITLE3=I Thought About You
TTITLE4=Furry Sings The Blues
TTITLE5=Grandma's Hands
TTITLE6=Alfie
TTITLE7=All Or Nothing At All
TTITLE8=Shake Down The Stars
TTITLE9=No One Ever Tells You
TTITLE10=Last Night When We Were Young
TTITLE11=That's Life
EXTD=YEAR: 1999
EXTT0=
EXTT1=
EXTT2=
EXTT3=
EXTT4=
EXTT5=
EXTT6=
EXTT7=
EXTT8=
EXTT9=
EXTT10=
EXTT11=
PLAYORDER=
